# xmcd
#
# Track frame offsets:
#	150
#	16858
#	34673
#	54054
#	69386
#	85770
#	100319
#	124207
#	141698
#	157327
#	178030
#	193632
#	205509
#	218114
#	233878
#	244324
#	254662
#
# Disc length: 3571 seconds
#
# Revision: 3
# Processed by: cddbd v1.5.2PL0 Copyright (c) Steve Scherf et al.
# Submitted via: EasyCDDAExtractor 2010.6.0.0
#
DISCID=f50df111
DTITLE=LEO CANHOTO and ROBERTINHO - NO BANG-BANG [1999]
DYEAR=1999
DGENRE=SERTANEJO
TTITLE0=O VALENTÃO(BY DJ GILMAR SINISTRO)
TTITLE1=JACK, O MATADOR(BY DJ GILMAR SINISTRO)
TTITLE2=ROCK BRAVO CHEGOU PARA MATAR(BY DJ GILMAR SINISTRO)
TTITLE3=DELEGADO LOBO NEGRO(BY DJ GILMAR SINISTRO)
TTITLE4=O VALENTÃO DA RUA AURORA(BY DJ GILMAR SINISTRO)
TTITLE5=O HOMEM MAU(BY DJ GILMAR SINISTRO)
TTITLE6=BUCK SARAMPO(BY DJ GILMAR SINISTRO)
TTITLE7=AMAZONAS KID(BY DJ GILMAR SINISTRO)
TTITLE8=KID BOCADURA(BY DJ GILMAR SINISTRO)
TTITLE9=DELEGADO JARACUÇU(BY DJ GILMAR SINISTRO)
TTITLE10=PEDRO QUEROSENE(BY DJ GILMAR SINISTRO)
TTITLE11=CHUMBO QUENTE(BY DJ GILMAR SINISTRO)
TTITLE12=A POLÍCIA(BY DJ GILMAR SINISTRO)
TTITLE13=O LOBISOMEM(BY DJ GILMAR SINISTRO)
TTITLE14=HISTÓRIA DE UM AZARADO(BY DJ GILMAR SINISTRO)
TTITLE15=MEU CARANGO(BY DJ GILMAR SINISTRO)
TTITLE16=BURRO TEM QUE COMER CAPIM(BY DJ GILMAR SINISTRO)
EXTD=Música Sertaneja Raiz!!
EXTT0=
EXTT1=
EXTT2=
EXTT3=
EXTT4=
EXTT5=
EXTT6=
EXTT7=
EXTT8=
EXTT9=
EXTT10=
EXTT11=
EXTT12=
EXTT13=
EXTT14=
EXTT15=
EXTT16=
PLAYORDER=
